<svg xmlns="http://www.w3.org/2000/svg" viewBox="0 0 56.26 56.26"><defs><style>.cls-1{fill:#548f6c;}</style></defs><title>atm</title><g id="Layer_2" data-name="Layer 2"><g id="Layer_1-2" data-name="Layer 1"><path class="cls-1" d="M9.38,35.16V49.23h16.4V35.16ZM23.44,45.71a1.11,1.11,0,0,1-1.17,1.17H12.89a1.11,1.11,0,0,1-1.17-1.17v-7a1.28,1.28,0,0,1,.7-1.17,1,1,0,0,1,1.18.23,6,6,0,0,0,4,2.11,6.08,6.08,0,0,0,4-2.11c.23-.23.93-.47,1.17-.23a1.28,1.28,0,0,1,.7,1.17v7Z"/><path class="cls-1" d="M17.58,42.19A5.79,5.79,0,0,1,14.06,41v3.52h7V41A5.79,5.79,0,0,1,17.58,42.19Z"/><polygon class="cls-1" points="12.89 11.25 10.78 16.41 15 16.41 12.89 11.25"/><path class="cls-1" d="M50.4,0H5.86A5.81,5.81,0,0,0,0,5.86V25.78H56.26V5.86A5.81,5.81,0,0,0,50.4,0ZM18.05,21.1h-.47a1.28,1.28,0,0,1-1.17-.71l-.7-1.64H9.85l-.71,1.64a1,1,0,0,1-1.4.71A1.05,1.05,0,0,1,7,19.69L11.72,8C12.19,7,13.6,7,13.83,8l4.69,11.72C19,20.16,18.52,20.86,18.05,21.1ZM31.64,9.38H28.13V19.92a1.18,1.18,0,1,1-2.35,0V9.38H22.27A1.11,1.11,0,0,1,21.1,8.2,1.11,1.11,0,0,1,22.27,7h9.37A1.11,1.11,0,0,1,32.82,8.2,1.11,1.11,0,0,1,31.64,9.38ZM49.23,19.92a1.18,1.18,0,1,1-2.35,0V12L44.3,15.71a1.1,1.1,0,0,1-1.87,0L39.85,12v7.74a1.17,1.17,0,1,1-2.34,0V8a1.19,1.19,0,0,1,.93-1.17c.47-.24.94,0,1.41.47l3.75,5.62,3.75-5.62a1.12,1.12,0,0,1,1.41-.47A1.53,1.53,0,0,1,49.69,8Z"/><path class="cls-1" d="M0,28.13V50.4a5.81,5.81,0,0,0,5.86,5.86H50.4a5.81,5.81,0,0,0,5.86-5.86V28.13Zm29.3,7H28.13V50.4A1.11,1.11,0,0,1,27,51.57H8.2A1.11,1.11,0,0,1,7,50.4V35.16H5.86a1.17,1.17,0,1,1,0-2.34H29.3a1.17,1.17,0,0,1,0,2.34Zm7,16.41H34a1.17,1.17,0,0,1,0-2.34h2.34a1.17,1.17,0,1,1,0,2.34Zm0-4.69H34a1.17,1.17,0,0,1,0-2.34h2.34a1.17,1.17,0,1,1,0,2.34Zm0-4.69H34a1.17,1.17,0,0,1,0-2.34h2.34a1.17,1.17,0,1,1,0,2.34Zm7,9.38H41a1.17,1.17,0,0,1,0-2.34h2.35a1.17,1.17,0,0,1,0,2.34Zm0-4.69H41a1.17,1.17,0,0,1,0-2.34h2.35a1.17,1.17,0,0,1,0,2.34Zm0-4.69H41a1.17,1.17,0,0,1,0-2.34h2.35a1.17,1.17,0,0,1,0,2.34Zm7,9.38H48.05a1.17,1.17,0,1,1,0-2.34H50.4a1.17,1.17,0,0,1,0,2.34Zm0-4.69H48.05a1.17,1.17,0,1,1,0-2.34H50.4a1.17,1.17,0,0,1,0,2.34Zm0-4.69H48.05a1.17,1.17,0,0,1,0-2.34H50.4a1.17,1.17,0,1,1,0,2.34Zm0-7H45.48a3.47,3.47,0,0,1-6.57,0H34a1.17,1.17,0,0,1,0-2.34h4.92a3.47,3.47,0,0,1,6.57,0H50.4a1.17,1.17,0,1,1,0,2.34Z"/></g></g></svg>