<svg xmlns="http://www.w3.org/2000/svg" viewBox="0 0 50.04 57.19"><defs><style>.cls-1{fill:#548f6c;}.cls-2{fill:#fff;}</style></defs><title>bins</title><g id="Layer_2" data-name="Layer 2"><g id="Layer_1-2" data-name="Layer 1"><path class="cls-1" d="M3.57,50a7.16,7.16,0,0,0,7.15,7.15h28.6A7.16,7.16,0,0,0,46.47,50V14.3H3.57Z"/><path class="cls-1" d="M32.17,3.57V0H17.87V3.57H0v7.15H50V3.57Z"/><path class="cls-2" d="M38.79,33.1c-.58-.45-1.25-1-1.37-1.36a4.2,4.2,0,0,1,.35-1.95c.37-1.12.75-2.28.12-3.17s-1.9-1-3.13-1.07a4.52,4.52,0,0,1-2-.4,4.09,4.09,0,0,1-.88-1.75c-.38-1.08-.8-2.3-1.87-2.66s-2.08.31-3.1,1a4.64,4.64,0,0,1-1.9.87,4.64,4.64,0,0,1-1.9-.87c-1-.64-2.07-1.3-3.1-1s-1.49,1.59-1.87,2.66a4.28,4.28,0,0,1-.87,1.76,4.73,4.73,0,0,1-2,.39c-1.23.08-2.49.17-3.13,1.07s-.25,2.05.12,3.17a4.25,4.25,0,0,1,.35,1.95c-.13.41-.78.91-1.37,1.36-1,.75-2,1.52-2,2.64s1,1.9,2,2.65c.59.45,1.25,1,1.37,1.36a4.25,4.25,0,0,1-.35,2c-.37,1.12-.74,2.28-.12,3.17s1.9,1,3.13,1.07a4.73,4.73,0,0,1,2,.39,4.31,4.31,0,0,1,.87,1.75c.38,1.08.8,2.31,1.87,2.67a3.89,3.89,0,0,0,3.1-1,4.53,4.53,0,0,1,1.9-.88,4.53,4.53,0,0,1,1.9.88,5.24,5.24,0,0,0,2.51,1.05,2,2,0,0,0,.59-.1c1.07-.36,1.49-1.58,1.87-2.66a4.18,4.18,0,0,1,.87-1.75,4.74,4.74,0,0,1,2-.4c1.23-.08,2.49-.17,3.13-1.07s.25-2-.12-3.17a4.2,4.2,0,0,1-.35-2c.13-.4.79-.91,1.37-1.36,1-.75,2-1.53,2-2.65S39.77,33.85,38.79,33.1Z"/><path class="cls-1" d="M20.43,32.4a.66.66,0,0,0,0-1.31H16.49a.66.66,0,0,0-.66.66v7.87a.67.67,0,0,0,.66.66h3.94a.66.66,0,0,0,0-1.32H17.15V36.34h2a.66.66,0,1,0,0-1.31h-2V32.4Z"/><path class="cls-1" d="M25,32.4a1.31,1.31,0,0,1,1.31,1.31.66.66,0,0,0,1.32,0,2.63,2.63,0,0,0-5.25,0v3.94a2.63,2.63,0,1,0,5.25,0,.66.66,0,0,0-1.32,0,1.31,1.31,0,0,1-2.62,0V33.71A1.31,1.31,0,0,1,25,32.4Z"/><path class="cls-1" d="M31.58,31.09A2.62,2.62,0,0,0,29,33.71v3.94a2.63,2.63,0,1,0,5.25,0V33.71A2.62,2.62,0,0,0,31.58,31.09Zm1.32,6.56a1.32,1.32,0,0,1-2.63,0V33.71a1.32,1.32,0,0,1,2.63,0Z"/></g></g></svg>