<svg xmlns="http://www.w3.org/2000/svg" xmlns:xlink="http://www.w3.org/1999/xlink" viewBox="0 0 841.89 222.89"><defs><style>.cls-1{fill:none;}.cls-2{clip-path:url(#clip-path);}.cls-3{fill:#c5fb64;}.cls-4{fill:#a4e356;}.cls-5{fill:#7bc940;}.cls-6{fill:#2a9e12;}.cls-7{clip-path:url(#clip-path-2);}.cls-8{clip-path:url(#clip-path-3);}</style><clipPath id="clip-path"><path class="cls-1" d="M85.29,59.07s43,9.81,39.05-37C124.34,22.11,82,13.76,85.29,59.07Z"/></clipPath><clipPath id="clip-path-2"><path class="cls-1" d="M79.19,79.14S95.2,9,18.87,15.42C18.87,15.42,5.24,84.59,79.19,79.14Z"/></clipPath><clipPath id="clip-path-3"><path class="cls-1" d="M82.5,122.08S160.17,139.8,153,55.34C153,55.34,76.47,40.26,82.5,122.08Z"/></clipPath></defs><title>Artboard 1</title><g id="Layer_2" data-name="Layer 2"><path d="M11.92,114.8H29.06v31.39h.25a18.23,18.23,0,0,1,8.51-7.06A28.77,28.77,0,0,1,49,136.89a23.78,23.78,0,0,1,17.57,7.85,30.41,30.41,0,0,1,6,10.2,42.72,42.72,0,0,1,2.29,14.79,42.7,42.7,0,0,1-2.29,14.78,30.92,30.92,0,0,1-6,10.26,23.59,23.59,0,0,1-8.27,6,23.92,23.92,0,0,1-9.3,1.93,32.08,32.08,0,0,1-12.31-2.23A15.93,15.93,0,0,1,28.46,193h-.24v8H11.92Zm45.75,55.05a33.62,33.62,0,0,0-.84-7.61,20,20,0,0,0-2.66-6.39,13.68,13.68,0,0,0-4.58-4.41,12.65,12.65,0,0,0-6.52-1.63,12.52,12.52,0,0,0-6.58,1.63A13.91,13.91,0,0,0,32,155.85a19.71,19.71,0,0,0-2.65,6.39,33.05,33.05,0,0,0-.85,7.61,32.43,32.43,0,0,0,.85,7.48,19.67,19.67,0,0,0,2.65,6.4,14,14,0,0,0,4.53,4.41,12.61,12.61,0,0,0,6.58,1.62,12.74,12.74,0,0,0,6.52-1.62,13.78,13.78,0,0,0,4.58-4.41,19.91,19.91,0,0,0,2.66-6.4A33,33,0,0,0,57.67,169.85Z"/><path d="M85.68,138.58H102v11.59h.24a21.47,21.47,0,0,1,8-9.59,22.51,22.51,0,0,1,5.73-2.72,20.86,20.86,0,0,1,6.22-1,11.77,11.77,0,0,1,3.74.61v15.93c-.8-.16-1.77-.3-2.89-.42a30.94,30.94,0,0,0-3.26-.18,18.21,18.21,0,0,0-8,1.57,13.77,13.77,0,0,0-5.25,4.28,17.13,17.13,0,0,0-2.84,6.4,34.88,34.88,0,0,0-.84,7.78V201H85.68Z"/><path d="M131.91,157.78a19.77,19.77,0,0,1,3-10,20.38,20.38,0,0,1,6.76-6.4,29.29,29.29,0,0,1,9.17-3.44,52.5,52.5,0,0,1,10.38-1,70.43,70.43,0,0,1,9.54.67,29.41,29.41,0,0,1,8.81,2.59,17.24,17.24,0,0,1,6.52,5.43,15.1,15.1,0,0,1,2.53,9.06v32.47a65.65,65.65,0,0,0,.48,8.09,14.68,14.68,0,0,0,1.69,5.79H173.43a24.28,24.28,0,0,1-.78-3,23.78,23.78,0,0,1-.42-3.08,22.9,22.9,0,0,1-9.66,6,37.45,37.45,0,0,1-11.35,1.75,29,29,0,0,1-8.33-1.15,19.81,19.81,0,0,1-6.76-3.44,15.61,15.61,0,0,1-4.52-5.79A19.52,19.52,0,0,1,130,184a18.65,18.65,0,0,1,1.81-8.75,14.8,14.8,0,0,1,4.83-5.49,22.19,22.19,0,0,1,6.82-3.08,70.58,70.58,0,0,1,7.78-1.63c2.66-.4,5.19-.72,7.61-1a44.13,44.13,0,0,0,6.45-1.08,11.64,11.64,0,0,0,4.53-2.12,4.91,4.91,0,0,0,1.69-4,9,9,0,0,0-.91-4.41,6.6,6.6,0,0,0-2.41-2.53,9.55,9.55,0,0,0-3.5-1.21,28.85,28.85,0,0,0-4.28-.3,13,13,0,0,0-7.91,2.17q-3,2.17-3.44,7.25Zm39.59,12.67a7.52,7.52,0,0,1-2.72,1.51,27.46,27.46,0,0,1-3.5.9c-1.24.25-2.57.45-4,.61s-2.76.36-4,.6a27.36,27.36,0,0,0-3.87,1,11.16,11.16,0,0,0-3.19,1.63,7.52,7.52,0,0,0-2.24,2.65,8.51,8.51,0,0,0-.84,3.93,8,8,0,0,0,.84,3.92,6.49,6.49,0,0,0,2.3,2.41,9.47,9.47,0,0,0,3.38,1.27,21.58,21.58,0,0,0,4,.36q5.07,0,7.84-1.69a11.22,11.22,0,0,0,4.11-4,13,13,0,0,0,1.63-4.77,33,33,0,0,0,.3-3.86Z"/><path d="M202.4,138.58h16.18V147h.24a24.45,24.45,0,0,1,8.15-7.48,22,22,0,0,1,10.92-2.66,24.57,24.57,0,0,1,10.8,2.36,15.49,15.49,0,0,1,7.43,8,26.7,26.7,0,0,1,7.54-7.24A20.08,20.08,0,0,1,275,136.89a33.45,33.45,0,0,1,9.17,1.21,18.49,18.49,0,0,1,7.24,3.86,17.69,17.69,0,0,1,4.71,6.94,28.1,28.1,0,0,1,1.69,10.32V201H280.62V165.62q0-3.13-.24-5.91a12.46,12.46,0,0,0-1.33-4.83,8,8,0,0,0-3.2-3.26,11.62,11.62,0,0,0-5.73-1.21,11,11,0,0,0-5.86,1.39,10.11,10.11,0,0,0-3.5,3.62,14.8,14.8,0,0,0-1.69,5.07,39.18,39.18,0,0,0-.42,5.74V201H241.51V166c0-1.76,0-3.58-.12-5.43a15.4,15.4,0,0,0-1-5.07,7.73,7.73,0,0,0-3-3.68,11.46,11.46,0,0,0-6.22-1.39,12.14,12.14,0,0,0-3.26.55,10.6,10.6,0,0,0-3.8,2,11.92,11.92,0,0,0-3.2,4.34,17.61,17.61,0,0,0-1.33,7.43V201H202.4Z"/><path d="M313.09,114.8h60.6v15.94H332v19.91h36.09v14.73H332V201h-19Z"/><path d="M384.67,114.8h18.95V201H384.67Z"/><path d="M433.2,172.38a15.78,15.78,0,0,0,1.57,7.37,13.57,13.57,0,0,0,4.16,4.88,18,18,0,0,0,6,2.78,28.82,28.82,0,0,0,7.31.91,36.61,36.61,0,0,0,5.43-.43,18.69,18.69,0,0,0,5.43-1.63,11.83,11.83,0,0,0,4.23-3.32,8.33,8.33,0,0,0,1.69-5.37,7.56,7.56,0,0,0-2.24-5.67,18.56,18.56,0,0,0-5.85-3.68,49.74,49.74,0,0,0-8.21-2.54q-4.59-1-9.29-2.35a81.13,81.13,0,0,1-9.42-3,32.22,32.22,0,0,1-8.21-4.52A21.66,21.66,0,0,1,420,149a21,21,0,0,1-2.24-10.14,22.57,22.57,0,0,1,2.84-11.52,25.74,25.74,0,0,1,7.42-8.15,32.49,32.49,0,0,1,10.39-4.83A44.36,44.36,0,0,1,450,112.75a55.12,55.12,0,0,1,13,1.51A32.58,32.58,0,0,1,474,119.15a24.77,24.77,0,0,1,7.66,8.63,26.49,26.49,0,0,1,2.84,12.73H466.15a15.29,15.29,0,0,0-1.63-6.39,10.74,10.74,0,0,0-3.68-4,15.86,15.86,0,0,0-5.31-2,32.88,32.88,0,0,0-6.4-.6,22.37,22.37,0,0,0-4.59.48,12.24,12.24,0,0,0-4.16,1.69,10.17,10.17,0,0,0-3.08,3.08,8.15,8.15,0,0,0-1.21,4.53,7.68,7.68,0,0,0,1,4.1,8.27,8.27,0,0,0,3.8,2.84,58.11,58.11,0,0,0,7.85,2.65q5,1.4,13.09,3.44c1.05.24,2.42.59,4.11,1a44.7,44.7,0,0,1,5.37,1.81,34.24,34.24,0,0,1,5.67,3,24.47,24.47,0,0,1,5.19,4.46,21.24,21.24,0,0,1,3.81,6.34,23.28,23.28,0,0,1,1.44,8.51,26.39,26.39,0,0,1-2.29,11,24,24,0,0,1-6.82,8.75,33.71,33.71,0,0,1-11.23,5.79A51.54,51.54,0,0,1,451.54,203a52.62,52.62,0,0,1-13.82-1.81A35,35,0,0,1,426,195.68a27.19,27.19,0,0,1-11.1-23.3Z"/><path d="M556.08,143.77a15.55,15.55,0,0,0-2.18-6,19,19,0,0,0-4.22-4.77,19.58,19.58,0,0,0-5.73-3.2,19.86,19.86,0,0,0-6.7-1.14,22.14,22.14,0,0,0-10.87,2.47,20.45,20.45,0,0,0-7.24,6.64,29,29,0,0,0-4,9.47,47,47,0,0,0-1.27,11,43.61,43.61,0,0,0,1.27,10.56,28.52,28.52,0,0,0,4,9.24,20.63,20.63,0,0,0,7.24,6.57,22,22,0,0,0,10.87,2.48q8.68,0,13.58-5.37a24.77,24.77,0,0,0,6-13.94h18.35a43.73,43.73,0,0,1-3.74,14.6,35.1,35.1,0,0,1-8,11.11,34.59,34.59,0,0,1-11.59,7.06,41.46,41.46,0,0,1-14.6,2.47,43.34,43.34,0,0,1-17.87-3.5A39,39,0,0,1,506.1,190a42,42,0,0,1-8.33-14.25,52.2,52.2,0,0,1-2.89-17.5,54.09,54.09,0,0,1,2.89-17.87,43.08,43.08,0,0,1,8.33-14.48,38.23,38.23,0,0,1,13.28-9.66,46.43,46.43,0,0,1,31.33-1.45,36.41,36.41,0,0,1,11.34,6,32.23,32.23,0,0,1,8.27,9.72,34.72,34.72,0,0,1,4.1,13.27Z"/><path d="M588.06,114.8h19v33.08H641.9V114.8h19V201h-19V163.81H607V201h-19Z"/><path d="M677.51,114.8H742v15.94H696.46v18.47h41.77v14.72H696.46v21.13h46.47V201H677.51Z"/><path d="M755.73,114.8H802.2a27.86,27.86,0,0,1,10.44,1.87,24.08,24.08,0,0,1,8,5.13,22.28,22.28,0,0,1,5.07,7.61,24.29,24.29,0,0,1,1.75,9.17,25.94,25.94,0,0,1-3.2,13.16q-3.19,5.55-10.44,8.45v.24a14.73,14.73,0,0,1,5.8,3,16.39,16.39,0,0,1,3.74,4.77,23,23,0,0,1,2.11,6,50.43,50.43,0,0,1,.9,6.46c.08,1.37.16,3,.25,4.83s.22,3.72.42,5.61a40.32,40.32,0,0,0,1,5.49,12.69,12.69,0,0,0,2,4.47H811a21.42,21.42,0,0,1-1.26-4.53c-.29-1.64-.53-3.38-.73-5.19s-.36-3.66-.48-5.55-.3-3.68-.54-5.37q-1-6.76-4.11-9.9t-10.26-3.14h-19V201H755.73Zm18.95,39h20.76q6.4,0,9.72-2.89c2.21-1.94,3.32-5.07,3.32-9.42q0-6.27-3.32-9.11t-9.72-2.84H774.68Z"/><g class="cls-2"><circle class="cls-3" cx="71.71" cy="107.52" r="112.88"/><circle class="cls-4" cx="72.79" cy="117.64" r="94.16"/><circle class="cls-5" cx="71.71" cy="129" r="70.33"/><circle class="cls-6" cx="65.39" cy="131.92" r="42.98"/></g><g class="cls-7"><circle class="cls-3" cx="71.71" cy="107.52" r="112.88"/><circle class="cls-4" cx="72.79" cy="117.64" r="94.16"/><circle class="cls-5" cx="71.71" cy="129" r="70.33"/><circle class="cls-6" cx="65.39" cy="131.92" r="42.98"/></g><g class="cls-8"><circle class="cls-3" cx="71.71" cy="107.52" r="112.88"/><circle class="cls-4" cx="72.79" cy="117.64" r="94.16"/><circle class="cls-5" cx="71.71" cy="129" r="70.33"/><circle class="cls-6" cx="65.39" cy="131.92" r="42.98"/></g></g></svg>