<svg xmlns="http://www.w3.org/2000/svg" viewBox="0 0 55.71 56.26"><defs><style>.cls-1{fill:#548f6c;}</style></defs><title>shopping cart</title><g id="Layer_2" data-name="Layer 2"><g id="Layer_1-2" data-name="Layer 1"><path class="cls-1" d="M54.38,10.67A5.46,5.46,0,0,0,50.2,8.83H10.15l-.4-3C9.32,2.55,7.05,0,4.59,0H1.65a1.65,1.65,0,0,0,0,3.3H4.59c.53,0,1.65,1.11,1.89,2.94L11.2,41.63a6.88,6.88,0,0,0,5.42,5.68,6,6,0,0,0-.73,2.89A6.06,6.06,0,0,0,28,50.2a6,6,0,0,0-.67-2.77H36a6,6,0,0,0-.67,2.77,6.06,6.06,0,1,0,12.12,0,6,6,0,0,0-.67-2.77h4.32a1.65,1.65,0,0,0,0-3.3H17.83a3.52,3.52,0,0,1-3.36-2.94l-.35-2.59H46.67a6.84,6.84,0,0,0,6.63-5.8l2.36-17.73A5.47,5.47,0,0,0,54.38,10.67ZM24.72,50.2A2.77,2.77,0,1,1,22,47.43,2.77,2.77,0,0,1,24.72,50.2Zm19.41,0a2.77,2.77,0,1,1-2.76-2.77A2.77,2.77,0,0,1,44.13,50.2ZM51.9,12.85a2.2,2.2,0,0,1,.49,1.78l-1,7.44H40.19l.66-10H50.2A2.2,2.2,0,0,1,51.9,12.85ZM28.5,35.31l-.67-10h8.83l-.66,10Zm-.89-13.24-.66-10h10.6l-.67,10Zm-4-10,.66,10H11.92l-1.33-10ZM12.36,25.36H24.53l.66,10H13.68Zm34.31,10H39.3l.67-10H51l-.93,7A3.53,3.53,0,0,1,46.67,35.31Z"/></g></g></svg>