<svg xmlns="http://www.w3.org/2000/svg" viewBox="0 0 72.9 55.53"><defs><style>.cls-1{fill:#548f6c;}.cls-2{fill:#fff;}</style></defs><title>email_1</title><g id="Layer_2" data-name="Layer 2"><g id="Layer_1-2" data-name="Layer 1"><rect class="cls-1" x="3.26" y="2.36" width="66.83" height="49.98"/><path class="cls-2" d="M66.49,0H6.41A6.42,6.42,0,0,0,0,6.41V49.12a6.42,6.42,0,0,0,6.41,6.41H66.49a6.42,6.42,0,0,0,6.41-6.41V6.41A6.42,6.42,0,0,0,66.49,0Zm-.88,4.27-29,29L7.31,4.27Zm-61.34,44v-41l20.57,20.4Zm3,3L27.88,30.67l7.21,7.16a2.14,2.14,0,0,0,3,0l7-7L65.61,51.26Zm61.34-3L48.16,27.77,68.63,7.29Z"/></g></g></svg>