<svg xmlns="http://www.w3.org/2000/svg" viewBox="0 0 56.26 56.26"><defs><style>.cls-1{fill:#548f6c;}.cls-2{fill:#fafbfc;}</style></defs><title>facebook</title><g id="Layer_2" data-name="Layer 2"><g id="Layer_1-2" data-name="Layer 1"><path class="cls-1" d="M49.23,0H7A7,7,0,0,0,0,7v42.2a7,7,0,0,0,7,7h42.2a7,7,0,0,0,7-7V7A7,7,0,0,0,49.23,0Z"/><path class="cls-2" d="M47.47,28.13H38.68v-7c0-1.94,1.57-1.76,3.51-1.76h3.52V10.55h-7A10.55,10.55,0,0,0,28.13,21.1v7h-7v8.79h7V56.26H38.68V36.92H44Z"/></g></g></svg>