<svg xmlns="http://www.w3.org/2000/svg" viewBox="0 0 56.26 56.26"><defs><style>.cls-1{fill:#548f6c;}.cls-2{fill:none;stroke:#bdc3c7;stroke-linecap:round;stroke-linejoin:round;stroke-width:0;}.cls-3{fill:#fff;}</style></defs><title>generator</title><g id="Layer_2" data-name="Layer 2"><g id="Layer_1-2" data-name="Layer 1"><path class="cls-1" d="M49.23,0H7A7,7,0,0,0,0,7v42.2a7,7,0,0,0,7,7h42.2a7,7,0,0,0,7-7V7A7,7,0,0,0,49.23,0Z"/><path class="cls-2" d="M40.68,8.07h.13"/><path class="cls-3" d="M49,13.58h0V12a2,2,0,0,0-2.12-1.79H8.66A2,2,0,0,0,6.53,12v1.56h0A1.57,1.57,0,0,0,5,15.15V43.47A1.58,1.58,0,0,0,6.51,45h0a3.15,3.15,0,0,1,3.15,3.15H45.07A3.15,3.15,0,0,1,48.22,45H49a1.57,1.57,0,0,0,1.58-1.57V15.15A1.57,1.57,0,0,0,49,13.58Z"/><path class="cls-1" d="M16.42,19.87h5.27c1.16,0,2.11.7,2.11,1.57v3.15c0,.87-.95,1.57-2.11,1.57H16.42c-1.16,0-2.1-.7-2.1-1.57V21.44C14.32,20.57,15.26,19.87,16.42,19.87Z"/><path class="cls-1" d="M44.72,27.8h-7l6-10.62A.84.84,0,0,0,43,15.92H32.89a.85.85,0,0,0-.8.58L27,31.76a.82.82,0,0,0,.11.76.84.84,0,0,0,.69.35H35L30.43,43.58a.84.84,0,0,0,.32,1,.86.86,0,0,0,1.09-.15L45.35,29.21a.85.85,0,0,0,.14-.91A.86.86,0,0,0,44.72,27.8Z"/></g></g></svg>