<svg xmlns="http://www.w3.org/2000/svg" viewBox="0 0 57.67 57.67"><defs><style>.cls-1{fill:#548f6c;}</style></defs><title>instagram_1</title><g id="Layer_2" data-name="Layer 2"><g id="Layer_1-2" data-name="Layer 1"><path class="cls-1" d="M41.74,19.07a5.52,5.52,0,0,0-3.14-3.14,9,9,0,0,0-3.08-.57c-1.74-.08-2.27-.1-6.69-.1s-4.94,0-6.69.1a9,9,0,0,0-3.07.57,5.52,5.52,0,0,0-3.14,3.14,9,9,0,0,0-.57,3.07c-.08,1.75-.1,2.27-.1,6.69s0,5,.1,6.69a9,9,0,0,0,.57,3.08,5,5,0,0,0,1.23,1.9,5.13,5.13,0,0,0,1.91,1.24,9,9,0,0,0,3.07.57c1.75.08,2.27.1,6.69.1s5,0,6.69-.1a9,9,0,0,0,3.08-.57,5.52,5.52,0,0,0,3.14-3.14,9,9,0,0,0,.57-3.08c.08-1.74.1-2.27.1-6.69s0-4.94-.1-6.69A9,9,0,0,0,41.74,19.07ZM28.83,37.34a8.51,8.51,0,1,1,8.51-8.51A8.51,8.51,0,0,1,28.83,37.34ZM37.67,22a2,2,0,1,1,2-2A2,2,0,0,1,37.67,22Z"/><path class="cls-1" d="M34.35,28.83a5.52,5.52,0,1,1-5.52-5.52A5.52,5.52,0,0,1,34.35,28.83Z"/><path class="cls-1" d="M53.51,0H4.16A4.16,4.16,0,0,0,0,4.16V53.51a4.16,4.16,0,0,0,4.16,4.16H53.51a4.16,4.16,0,0,0,4.16-4.16V4.16A4.16,4.16,0,0,0,53.51,0ZM45.29,35.66a12.12,12.12,0,0,1-.77,4,8.48,8.48,0,0,1-4.84,4.84,12.12,12.12,0,0,1-4,.77c-1.77.08-2.33.1-6.83.1s-5.06,0-6.82-.1a12.12,12.12,0,0,1-4-.77,8.48,8.48,0,0,1-4.84-4.84,12.12,12.12,0,0,1-.77-4c-.08-1.77-.1-2.33-.1-6.83s0-5.06.1-6.82a12.12,12.12,0,0,1,.77-4A8.48,8.48,0,0,1,18,13.15a12.12,12.12,0,0,1,4-.77c1.76-.08,2.33-.1,6.82-.1s5.06,0,6.83.1a12.12,12.12,0,0,1,4,.77A8.48,8.48,0,0,1,44.52,18a12.12,12.12,0,0,1,.77,4c.08,1.76.1,2.33.1,6.82S45.37,33.89,45.29,35.66Z"/></g></g></svg>