<svg xmlns="http://www.w3.org/2000/svg" viewBox="0 0 55.09 55.09"><defs><style>.cls-1{fill:#548f6c;}.cls-2{fill:#f2f2f2;}</style></defs><title>linkedin</title><g id="Layer_2" data-name="Layer 2"><g id="Layer_1-2" data-name="Layer 1"><circle class="cls-1" cx="27.55" cy="27.55" r="27.55"/><path class="cls-2" d="M44,29.76V41.12H37.42V30.52c0-2.66-1-4.47-3.33-4.47a3.61,3.61,0,0,0-3.38,2.4,4.39,4.39,0,0,0-.22,1.61V41.12H23.91s.08-17.95,0-19.8h6.58v2.8l0,.07h0v-.07a6.56,6.56,0,0,1,5.93-3.27c4.34,0,7.58,2.83,7.58,8.91Zm-27-18a3.43,3.43,0,1,0-.09,6.84h0A3.43,3.43,0,1,0,17,11.77ZM13.68,41.12h6.58V21.32H13.68Z"/></g></g></svg>