<svg xmlns="http://www.w3.org/2000/svg" viewBox="0 0 63.83 55.69"><defs><style>.cls-1{fill:#548f6c;}</style></defs><title>covered parking</title><g id="Layer_2" data-name="Layer 2"><g id="Layer_1-2" data-name="Layer 1"><path class="cls-1" d="M45,21c2.76,2.34,4,5.74,4,10.41s-1.28,8.08-4,10.42C42.2,44,38,45.06,32.43,45.06H27.32V55.69h-8.5v-38H32.43C38,17.64,42.2,18.7,45,21ZM38.59,36.13c1.06-1.06,1.49-2.76,1.49-5.1,0-2.13-.64-3.83-1.92-4.68A11.37,11.37,0,0,0,32,24.87H27.11v13h5.74C35.61,37.83,37.53,37.19,38.59,36.13Z"/><path class="cls-1" d="M2.58,21.35,0,16.28,32,0,63.83,16.28l-2.6,5.07L32,6.39Z"/></g></g></svg>