<svg xmlns="http://www.w3.org/2000/svg" viewBox="0 0 55.53 55.53"><defs><style>.cls-1{fill:#548f6c;}</style></defs><title>telephone</title><g id="Layer_2" data-name="Layer 2"><g id="Layer_1-2" data-name="Layer 1"><path class="cls-1" d="M36.83,34.46l3.82-3.82L55.53,45.52l-3.82,3.82Z"/><path class="cls-1" d="M6.19,3.82,10,0,24.89,14.88,21.07,18.7Z"/><path class="cls-1" d="M34.48,36.72a56.8,56.8,0,0,1-8.5-7,56.09,56.09,0,0,1-7-8.5L3.89,6.13,2.37,7.64l0,.05c-2.89,3.12-3.1,8.4-.58,14.86C4.1,28.62,8.63,35.18,14.49,41S27.05,51.52,33.17,53.86a22.48,22.48,0,0,0,7.93,1.67,9.47,9.47,0,0,0,7-2.55l1.34-1.34Z"/></g></g></svg>