<svg xmlns="http://www.w3.org/2000/svg" viewBox="0 0 54.81 54.64"><defs><style>.cls-1{fill:#548f6c;}</style></defs><title>website</title><g id="Layer_2" data-name="Layer 2"><g id="Layer_1-2" data-name="Layer 1"><path class="cls-1" d="M51,28.61a34.27,34.27,0,0,1-2.83,12.88H51a27,27,0,0,0,3.82-12.88Z"/><path class="cls-1" d="M15.6,43.63H9.83A22.92,22.92,0,0,0,20.92,53.82,26.17,26.17,0,0,1,15.6,43.63Z"/><path class="cls-1" d="M33.9,1.25a26.32,26.32,0,0,1,5.31,10.18H45A23,23,0,0,0,33.9,1.25Z"/><path class="cls-1" d="M46,13.58H39.77a56.88,56.88,0,0,1,1.62,12.88H49A32.51,32.51,0,0,0,46,13.58Z"/><path class="cls-1" d="M9.83,11.43H15.6A26.32,26.32,0,0,1,20.91,1.25,23,23,0,0,0,9.83,11.43Z"/><path class="cls-1" d="M8.79,13.58a32.55,32.55,0,0,0-3,12.88h7.66A56.26,56.26,0,0,1,15,13.58Z"/><path class="cls-1" d="M3.78,28.61H0A27,27,0,0,0,3.82,41.49H6.6A34.08,34.08,0,0,1,3.78,28.61Z"/><path class="cls-1" d="M3.82,13.58A27,27,0,0,0,0,26.46H3.78A34,34,0,0,1,6.6,13.58Z"/><path class="cls-1" d="M13.43,28.61H5.77a32.55,32.55,0,0,0,3,12.88H15A56.34,56.34,0,0,1,13.43,28.61Z"/><path class="cls-1" d="M39.21,43.63A26.3,26.3,0,0,1,33.9,53.82,23,23,0,0,0,45,43.63Z"/><path class="cls-1" d="M41.39,28.61a56.88,56.88,0,0,1-1.62,12.88H46a32.55,32.55,0,0,0,3-12.88Z"/><path class="cls-1" d="M51,13.58H48.21A34.08,34.08,0,0,1,51,26.46h3.78A27,27,0,0,0,51,13.58Z"/><path class="cls-1" d="M41.76,4.06a25.53,25.53,0,0,1,5.49,7.37h2.43A27,27,0,0,0,41.76,4.06Z"/><path class="cls-1" d="M5.13,11.43H7.57a25.46,25.46,0,0,1,5.48-7.37A27,27,0,0,0,5.13,11.43Z"/><path class="cls-1" d="M7.56,43.63H5.14A33.88,33.88,0,0,0,13.05,51,33.19,33.19,0,0,1,7.56,43.63Z"/><path class="cls-1" d="M47.25,43.64A33.36,33.36,0,0,1,41.76,51a34.31,34.31,0,0,0,7.92-7.37Z"/><path class="cls-1" d="M28.19,0V11.43h8.89C35.06,5,32.06.7,28.19,0Z"/><path class="cls-1" d="M17.73,11.43h8.75V0C23,.7,19.75,5,17.73,11.43Z"/><path class="cls-1" d="M26.48,13.58H17.15a53.41,53.41,0,0,0-1.73,12.88H26.48V13.58Z"/><path class="cls-1" d="M37.66,13.58H28.19V26.46h11.2A53.48,53.48,0,0,0,37.66,13.58Z"/><path class="cls-1" d="M26.48,28.61H15.42a53.48,53.48,0,0,0,1.73,12.88h9.33V28.61Z"/><path class="cls-1" d="M28.19,28.61V41.49h9.47a53.48,53.48,0,0,0,1.73-12.88Z"/><path class="cls-1" d="M26.48,43.63H17.73c2,6,5.31,10.31,8.75,11v-11Z"/><path class="cls-1" d="M28.19,43.63v11c3.87-.7,6.87-5,8.89-11Z"/></g></g></svg>