<svg xmlns="http://www.w3.org/2000/svg" viewBox="0 0 42.41 52.53"><defs><style>.cls-1{fill:#548f6c;}</style></defs><title>wheelchair</title><g id="Layer_2" data-name="Layer 2"><g id="Layer_1-2" data-name="Layer 1"><path class="cls-1" d="M19,10.35a5.18,5.18,0,1,0-5.18-5.17A5.17,5.17,0,0,0,19,10.35Z"/><path class="cls-1" d="M27,39.69A11.44,11.44,0,1,1,11.4,26.06V21.2a16,16,0,1,0,19.13,22l-1.81-3.55Z"/><path class="cls-1" d="M42.08,45.83,35.15,32.2a3,3,0,0,0-2.71-1.66H23.56v-2H31.2a2.25,2.25,0,0,0,1.82-1,2.21,2.21,0,0,0,.46-1.31A2.28,2.28,0,0,0,31.2,24H23.56V17.08a4.56,4.56,0,0,0-9.12,0V32a4.65,4.65,0,0,0,4.65,4.65H30.58l6.08,12a3.06,3.06,0,0,0,2.72,1.66,2.94,2.94,0,0,0,1.37-.33A3,3,0,0,0,42.08,45.83Z"/></g></g></svg>