<svg xmlns="http://www.w3.org/2000/svg" viewBox="0 0 76.15 57.77"><defs><style>.cls-1{fill:#548f6c;}.cls-2{fill:#fff;}</style></defs><title>youtube_1</title><g id="Layer_2" data-name="Layer 2"><g id="Layer_1-2" data-name="Layer 1"><g id="_1-Video" data-name="1-Video"><path class="cls-1" d="M68.68,57.77H7.48A7.48,7.48,0,0,1,0,50.29V7.48A7.48,7.48,0,0,1,7.48,0h61.2a7.47,7.47,0,0,1,7.47,7.48V50.29A7.47,7.47,0,0,1,68.68,57.77Z"/><path class="cls-2" d="M27.57,42.71V15.06a1.85,1.85,0,0,1,2.8-1.59L53.76,27.29a1.86,1.86,0,0,1,0,3.19L30.37,44.3A1.85,1.85,0,0,1,27.57,42.71Z"/></g></g></g></svg>